REM DIRINDEX 1\2,1\3,1\4,1\6,1\5\7,1\5\8
REM DIRNAME folder01,folder02,folder03,folder04,folder05,folder06,folder07,folder08
TITLE ""
FILE "DB4500_5th_3B_05.mp3" MP3
  TRACK 01 AUDIO
    TITLE "0:"
    INDEX 01 00:00:00
  TRACK 02 AUDIO
    TITLE "2:cjc114_1781"
    INDEX 01 00:00:03
  TRACK 03 AUDIO
    TITLE "0:"
    INDEX 01 00:01:21
  TRACK 04 AUDIO
    TITLE "3:cjc114_1782"
    INDEX 01 00:01:46
  TRACK 05 AUDIO
    TITLE "0:"
    INDEX 01 00:03:21
  TRACK 06 AUDIO
    TITLE "4:cjc114_1783"
    INDEX 01 00:03:51
  TRACK 07 AUDIO
    TITLE "0:"
    INDEX 01 00:06:33
  TRACK 08 AUDIO
    TITLE "2:cjc114_1784"
    INDEX 01 00:07:09
  TRACK 09 AUDIO
    TITLE "0:"
    INDEX 01 00:08:26
  TRACK 10 AUDIO
    TITLE "3:cjc114_1785"
    INDEX 01 00:08:52
  TRACK 11 AUDIO
    TITLE "0:"
    INDEX 01 00:09:69
  TRACK 12 AUDIO
    TITLE "4:cjc114_1786"
    INDEX 01 00:10:19
  TRACK 13 AUDIO
    TITLE "0:"
    INDEX 01 00:13:39
  TRACK 14 AUDIO
    TITLE "2:cjc114_1787"
    INDEX 01 00:14:13
  TRACK 15 AUDIO
    TITLE "0:"
    INDEX 01 00:15:19
  TRACK 16 AUDIO
    TITLE "3:cjc114_1788"
    INDEX 01 00:15:46
  TRACK 17 AUDIO
    TITLE "0:"
    INDEX 01 00:17:10
  TRACK 18 AUDIO
    TITLE "4:cjc114_1789"
    INDEX 01 00:17:33
  TRACK 19 AUDIO
    TITLE "0:"
    INDEX 01 00:21:08
  TRACK 20 AUDIO
    TITLE "2:cjc114_1790"
    INDEX 01 00:21:57
  TRACK 21 AUDIO
    TITLE "0:"
    INDEX 01 00:22:70
  TRACK 22 AUDIO
    TITLE "3:cjc114_1791"
    INDEX 01 00:23:22
  TRACK 23 AUDIO
    TITLE "0:"
    INDEX 01 00:24:41
  TRACK 24 AUDIO
    TITLE "4:cjc114_1792"
    INDEX 01 00:24:69
  TRACK 25 AUDIO
    TITLE "0:"
    INDEX 01 00:28:39
  TRACK 26 AUDIO
    TITLE "2:cjc114_1793"
    INDEX 01 00:29:13
  TRACK 27 AUDIO
    TITLE "0:"
    INDEX 01 00:30:16
  TRACK 28 AUDIO
    TITLE "3:cjc114_1794"
    INDEX 01 00:30:44
  TRACK 29 AUDIO
    TITLE "0:"
    INDEX 01 00:31:65
  TRACK 30 AUDIO
    TITLE "4:cjc114_1795"
    INDEX 01 00:32:15
  TRACK 31 AUDIO
    TITLE "0:"
    INDEX 01 00:35:72
  TRACK 32 AUDIO
    TITLE "2:cjc114_1796"
    INDEX 01 00:36:46
  TRACK 33 AUDIO
    TITLE "0:"
    INDEX 01 00:37:54
  TRACK 34 AUDIO
    TITLE "3:cjc114_1797"
    INDEX 01 00:38:04
  TRACK 35 AUDIO
    TITLE "0:"
    INDEX 01 00:39:21
  TRACK 36 AUDIO
    TITLE "4:cjc114_1798"
    INDEX 01 00:39:51
  TRACK 37 AUDIO
    TITLE "0:"
    INDEX 01 00:42:74
  TRACK 38 AUDIO
    TITLE "2:cjc114_1799"
    INDEX 01 00:43:46
  TRACK 39 AUDIO
    TITLE "0:"
    INDEX 01 00:44:52
  TRACK 40 AUDIO
    TITLE "3:cjc114_1800"
    INDEX 01 00:45:00
  TRACK 41 AUDIO
    TITLE "0:"
    INDEX 01 00:46:19
  TRACK 42 AUDIO
    TITLE "4:cjc114_1801"
    INDEX 01 00:46:47
  TRACK 43 AUDIO
    TITLE "0:"
    INDEX 01 00:50:21
  TRACK 44 AUDIO
    TITLE "2:cjc114_1802"
    INDEX 01 00:50:70
  TRACK 45 AUDIO
    TITLE "0:"
    INDEX 01 00:52:02
  TRACK 46 AUDIO
    TITLE "3:cjc114_1803"
    INDEX 01 00:52:28
  TRACK 47 AUDIO
    TITLE "0:"
    INDEX 01 00:53:35
  TRACK 48 AUDIO
    TITLE "4:cjc114_1804"
    INDEX 01 00:53:60
  TRACK 49 AUDIO
    TITLE "0:"
    INDEX 01 00:56:57
  TRACK 50 AUDIO
    TITLE "2:cjc114_1805"
    INDEX 01 00:57:29
  TRACK 51 AUDIO
    TITLE "0:"
    INDEX 01 00:58:30
  TRACK 52 AUDIO
    TITLE "3:cjc114_1806"
    INDEX 01 00:58:56
  TRACK 53 AUDIO
    TITLE "0:"
    INDEX 01 01:00:13
  TRACK 54 AUDIO
    TITLE "4:cjc114_1807"
    INDEX 01 01:00:39
  TRACK 55 AUDIO
    TITLE "0:"
    INDEX 01 01:03:63
  TRACK 56 AUDIO
    TITLE "2:cjc114_1808"
    INDEX 01 01:04:37
  TRACK 57 AUDIO
    TITLE "0:"
    INDEX 01 01:05:60
  TRACK 58 AUDIO
    TITLE "3:cjc114_1809"
    INDEX 01 01:06:10
  TRACK 59 AUDIO
    TITLE "0:"
    INDEX 01 01:07:66
  TRACK 60 AUDIO
    TITLE "4:cjc114_1810"
    INDEX 01 01:08:17
  TRACK 61 AUDIO
    TITLE "0:"
    INDEX 01 01:11:13
  TRACK 62 AUDIO
    TITLE "2:cjc114_1811"
    INDEX 01 01:11:64
  TRACK 63 AUDIO
    TITLE "0:"
    INDEX 01 01:12:70
  TRACK 64 AUDIO
    TITLE "3:cjc114_1812"
    INDEX 01 01:13:22
  TRACK 65 AUDIO
    TITLE "0:"
    INDEX 01 01:14:74
  TRACK 66 AUDIO
    TITLE "4:cjc114_1813"
    INDEX 01 01:15:27
  TRACK 67 AUDIO
    TITLE "0:"
    INDEX 01 01:19:42
  TRACK 68 AUDIO
    TITLE "2:cjc114_1814"
    INDEX 01 01:20:16
  TRACK 69 AUDIO
    TITLE "0:"
    INDEX 01 01:21:14
  TRACK 70 AUDIO
    TITLE "3:cjc114_1815"
    INDEX 01 01:21:41
  TRACK 71 AUDIO
    TITLE "0:"
    INDEX 01 01:22:64
  TRACK 72 AUDIO
    TITLE "4:cjc114_1816"
    INDEX 01 01:23:16
  TRACK 73 AUDIO
    TITLE "0:"
    INDEX 01 01:26:40
  TRACK 74 AUDIO
    TITLE "2:cjc114_1817"
    INDEX 01 01:27:16
  TRACK 75 AUDIO
    TITLE "0:"
    INDEX 01 01:28:18
  TRACK 76 AUDIO
    TITLE "3:cjc114_1818"
    INDEX 01 01:28:43
  TRACK 77 AUDIO
    TITLE "0:"
    INDEX 01 01:29:72
  TRACK 78 AUDIO
    TITLE "4:cjc114_1819"
    INDEX 01 01:30:24
  TRACK 79 AUDIO
    TITLE "0:"
    INDEX 01 01:33:72
